<svg id="visual" viewBox="0 0 1920 605" width="1920" height="605" xmlns="http://www.w3.org/2000/svg" xmlns:xlink="http://www.w3.org/1999/xlink" version="1.1"><rect x="0" y="0" width="1920" height="605" fill="#001220"></rect><path d="M0 372L45.7 382.8C91.3 393.7 182.7 415.3 274.2 427.3C365.7 439.3 457.3 441.7 548.8 430.3C640.3 419 731.7 394 823 391.5C914.3 389 1005.7 409 1097 422.8C1188.3 436.7 1279.7 444.3 1371.2 432.3C1462.7 420.3 1554.3 388.7 1645.8 385.2C1737.3 381.7 1828.7 406.3 1874.3 418.7L1920 431L1920 606L1874.3 606C1828.7 606 1737.3 606 1645.8 606C1554.3 606 1462.7 606 1371.2 606C1279.7 606 1188.3 606 1097 606C1005.7 606 914.3 606 823 606C731.7 606 640.3 606 548.8 606C457.3 606 365.7 606 274.2 606C182.7 606 91.3 606 45.7 606L0 606Z" fill="#fa7268"></path><path d="M0 459L45.7 450.3C91.3 441.7 182.7 424.3 274.2 424.8C365.7 425.3 457.3 443.7 548.8 450C640.3 456.3 731.7 450.7 823 448.7C914.3 446.7 1005.7 448.3 1097 444.8C1188.3 441.3 1279.7 432.7 1371.2 428.5C1462.7 424.3 1554.3 424.7 1645.8 425C1737.3 425.3 1828.7 425.7 1874.3 425.8L1920 426L1920 606L1874.3 606C1828.7 606 1737.3 606 1645.8 606C1554.3 606 1462.7 606 1371.2 606C1279.7 606 1188.3 606 1097 606C1005.7 606 914.3 606 823 606C731.7 606 640.3 606 548.8 606C457.3 606 365.7 606 274.2 606C182.7 606 91.3 606 45.7 606L0 606Z" fill="#ef5f67"></path><path d="M0 495L45.7 494.7C91.3 494.3 182.7 493.7 274.2 488.5C365.7 483.3 457.3 473.7 548.8 472.8C640.3 472 731.7 480 823 479.2C914.3 478.3 1005.7 468.7 1097 464.7C1188.3 460.7 1279.7 462.3 1371.2 469.3C1462.7 476.3 1554.3 488.7 1645.8 491.5C1737.3 494.3 1828.7 487.7 1874.3 484.3L1920 481L1920 606L1874.3 606C1828.7 606 1737.3 606 1645.8 606C1554.3 606 1462.7 606 1371.2 606C1279.7 606 1188.3 606 1097 606C1005.7 606 914.3 606 823 606C731.7 606 640.3 606 548.8 606C457.3 606 365.7 606 274.2 606C182.7 606 91.3 606 45.7 606L0 606Z" fill="#e34c67"></path><path d="M0 523L45.7 522.5C91.3 522 182.7 521 274.2 521.7C365.7 522.3 457.3 524.7 548.8 528.5C640.3 532.3 731.7 537.7 823 534.7C914.3 531.7 1005.7 520.3 1097 519.8C1188.3 519.3 1279.7 529.7 1371.2 526.8C1462.7 524 1554.3 508 1645.8 503C1737.3 498 1828.7 504 1874.3 507L1920 510L1920 606L1874.3 606C1828.7 606 1737.3 606 1645.8 606C1554.3 606 1462.7 606 1371.2 606C1279.7 606 1188.3 606 1097 606C1005.7 606 914.3 606 823 606C731.7 606 640.3 606 548.8 606C457.3 606 365.7 606 274.2 606C182.7 606 91.3 606 45.7 606L0 606Z" fill="#d53867"></path><path d="M0 567L45.7 568.7C91.3 570.3 182.7 573.7 274.2 568.5C365.7 563.3 457.3 549.7 548.8 545C640.3 540.3 731.7 544.7 823 545.8C914.3 547 1005.7 545 1097 547.5C1188.3 550 1279.7 557 1371.2 562.3C1462.7 567.7 1554.3 571.3 1645.8 570.8C1737.3 570.3 1828.7 565.7 1874.3 563.3L1920 561L1920 606L1874.3 606C1828.7 606 1737.3 606 1645.8 606C1554.3 606 1462.7 606 1371.2 606C1279.7 606 1188.3 606 1097 606C1005.7 606 914.3 606 823 606C731.7 606 640.3 606 548.8 606C457.3 606 365.7 606 274.2 606C182.7 606 91.3 606 45.7 606L0 606Z" fill="#c62368"></path></svg>